<svg width="157" height="22" viewBox="0 0 157 22" fill="none" xmlns="http://www.w3.org/2000/svg">
<path d="M0 13.6622C0 12.1318 0.304832 10.7767 0.914497 9.59668C1.54209 8.41665 2.38486 7.50398 3.44281 6.85865C4.51869 6.19488 5.71112 5.863 7.02011 5.863C7.9884 5.863 8.93876 6.08426 9.87118 6.52677C10.8215 6.95084 11.5747 7.52241 12.1305 8.24149V0.884766H15.2237V21.3508H12.1305V19.0553C11.6285 19.7928 10.9291 20.4012 10.0326 20.8806C9.15393 21.36 8.14081 21.5997 6.99321 21.5997C5.70216 21.5997 4.51869 21.2678 3.44281 20.6041C2.38486 19.9219 1.54209 18.9815 0.914497 17.7831C0.304832 16.5662 0 15.1925 0 13.6622ZM12.1305 13.7175C12.1305 12.6665 11.9154 11.7539 11.485 10.9795C11.0726 10.2051 10.5257 9.61512 9.84429 9.20948C9.1629 8.80385 8.42771 8.60103 7.63874 8.60103C6.84976 8.60103 6.11458 8.80385 5.43319 9.20948C4.7518 9.59668 4.19593 10.1774 3.76557 10.9518C3.35315 11.7078 3.14694 12.6112 3.14694 13.6622C3.14694 14.7131 3.35315 15.635 3.76557 16.4279C4.19593 17.2207 4.7518 17.8291 5.43319 18.2532C6.13251 18.6589 6.86769 18.8617 7.63874 18.8617C8.42771 18.8617 9.1629 18.6589 9.84429 18.2532C10.5257 17.8476 11.0726 17.2576 11.485 16.4832C11.9154 15.6904 12.1305 14.7685 12.1305 13.7175Z" fill="white"/>
<path d="M32.8335 13.3583C32.8335 13.9298 32.7977 14.4461 32.726 14.907H21.4023C21.492 16.1239 21.9313 17.1012 22.7203 17.8387C23.5093 18.5762 24.4776 18.9449 25.6252 18.9449C27.2748 18.9449 28.4404 18.2351 29.1218 16.8154H32.4301C31.9818 18.2166 31.1659 19.369 29.9825 20.2725C28.8169 21.1575 27.3645 21.6 25.6252 21.6C24.2086 21.6 22.9355 21.2773 21.8058 20.632C20.694 19.9682 19.8154 19.0464 19.1699 17.8663C18.5423 16.6679 18.2285 15.285 18.2285 13.7178C18.2285 12.1506 18.5333 10.777 19.143 9.59696C19.7706 8.39849 20.6403 7.4766 21.752 6.83127C22.8817 6.18595 24.1727 5.86328 25.6252 5.86328C27.0238 5.86328 28.27 6.17673 29.3638 6.80361C30.4576 7.4305 31.3094 8.31552 31.919 9.45867C32.5287 10.5834 32.8335 11.8832 32.8335 13.3583ZM29.6328 12.3626C29.6149 11.201 29.2114 10.2699 28.4224 9.5693C27.6335 8.86866 26.6562 8.51834 25.4907 8.51834C24.4327 8.51834 23.5272 8.86866 22.7741 9.5693C22.021 10.2515 21.5727 11.1826 21.4292 12.3626H29.6328Z" fill="white"/>
<path d="M41.5809 18.5302L45.7768 6.1123H49.0313L43.383 21.3512H39.725L34.1035 6.1123H37.385L41.5809 18.5302Z" fill="white"/>
<path d="M52.5865 21.5447C52.0306 21.5447 51.5644 21.3511 51.1878 20.9639C50.8113 20.5767 50.623 20.0973 50.623 19.5257C50.623 18.9542 50.8113 18.4748 51.1878 18.0876C51.5644 17.7004 52.0306 17.5068 52.5865 17.5068C53.1244 17.5068 53.5817 17.7004 53.9582 18.0876C54.3348 18.4748 54.523 18.9542 54.523 19.5257C54.523 20.0973 54.3348 20.5767 53.9582 20.9639C53.5817 21.3511 53.1244 21.5447 52.5865 21.5447Z" fill="white"/>
<path d="M64.0497 8.68425H61.3063V21.3511H58.2131V8.68425H56.4648V6.11216H58.2131V5.03355C58.2131 3.28194 58.6614 2.00973 59.558 1.2169C60.4725 0.405633 61.898 0 63.8346 0V2.6274C62.9021 2.6274 62.2477 2.81178 61.8711 3.18054C61.4945 3.53086 61.3063 4.14853 61.3063 5.03355V6.11216H64.0497V8.68425Z" fill="white"/>
<path d="M68.3278 4.09356C67.7719 4.09356 67.3057 3.89997 66.9292 3.51277C66.5526 3.12557 66.3643 2.64619 66.3643 2.07461C66.3643 1.50304 66.5526 1.02365 66.9292 0.636459C67.3057 0.249262 67.7719 0.0556641 68.3278 0.0556641C68.8657 0.0556641 69.323 0.249262 69.6996 0.636459C70.0761 1.02365 70.2644 1.50304 70.2644 2.07461C70.2644 2.64619 70.0761 3.12557 69.6996 3.51277C69.323 3.89997 68.8657 4.09356 68.3278 4.09356ZM69.834 6.11251V21.3515H66.7678V6.11251H69.834Z" fill="white"/>
<path d="M81.3367 5.86328C82.5022 5.86328 83.5423 6.11219 84.4567 6.61002C85.3892 7.10784 86.1154 7.84536 86.6354 8.82257C87.1554 9.79977 87.4154 10.9798 87.4154 12.3626V21.3511H84.3761V12.8328C84.3761 11.4684 84.0443 10.4266 83.3809 9.70758C82.7174 8.97007 81.8119 8.60131 80.6643 8.60131C79.5167 8.60131 78.6022 8.97007 77.9208 9.70758C77.2573 10.4266 76.9256 11.4684 76.9256 12.8328V21.3511H73.8594V6.11219H76.9256V7.85458C77.4277 7.22769 78.0642 6.73908 78.8353 6.38876C79.6243 6.03844 80.4581 5.86328 81.3367 5.86328Z" fill="white"/>
<path d="M90.3047 13.6625C90.3047 12.1321 90.6096 10.777 91.2192 9.59696C91.8468 8.41693 92.6896 7.50426 93.7475 6.85893C94.8234 6.19516 96.0069 5.86328 97.2979 5.86328C98.4635 5.86328 99.4766 6.10298 100.337 6.58236C101.216 7.04331 101.915 7.6241 102.435 8.32474V6.11219H105.528V21.3511H102.435V19.0832C101.915 19.8023 101.207 20.4015 100.31 20.8809C99.4138 21.3603 98.3917 21.6 97.2441 21.6C95.971 21.6 94.8055 21.2681 93.7475 20.6044C92.6896 19.9222 91.8468 18.9818 91.2192 17.7834C90.6096 16.5665 90.3047 15.1928 90.3047 13.6625ZM102.435 13.7178C102.435 12.6668 102.22 11.7542 101.789 10.9798C101.377 10.2054 100.83 9.6154 100.149 9.20976C99.4676 8.80413 98.7324 8.60131 97.9435 8.60131C97.1545 8.60131 96.4193 8.80413 95.7379 9.20976C95.0565 9.59696 94.5007 10.1777 94.0703 10.9521C93.6579 11.7081 93.4517 12.6115 93.4517 13.6625C93.4517 14.7134 93.6579 15.6353 94.0703 16.4282C94.5007 17.221 95.0565 17.8294 95.7379 18.2535C96.4372 18.6592 97.1724 18.862 97.9435 18.862C98.7324 18.862 99.4676 18.6592 100.149 18.2535C100.83 17.8479 101.377 17.2579 101.789 16.4835C102.22 15.6907 102.435 14.7688 102.435 13.7178Z" fill="white"/>
<path d="M117.033 5.86328C118.198 5.86328 119.238 6.11219 120.153 6.61002C121.085 7.10784 121.812 7.84536 122.332 8.82257C122.852 9.79977 123.112 10.9798 123.112 12.3626V21.3511H120.072V12.8328C120.072 11.4684 119.74 10.4266 119.077 9.70758C118.414 8.97007 117.508 8.60131 116.36 8.60131C115.213 8.60131 114.298 8.97007 113.617 9.70758C112.953 10.4266 112.622 11.4684 112.622 12.8328V21.3511H109.556V6.11219H112.622V7.85458C113.124 7.22769 113.76 6.73908 114.531 6.38876C115.32 6.03844 116.154 5.86328 117.033 5.86328Z" fill="white"/>
<path d="M126.001 13.7178C126.001 12.1506 126.306 10.777 126.915 9.59696C127.543 8.39849 128.403 7.4766 129.497 6.83127C130.591 6.18595 131.846 5.86328 133.263 5.86328C135.056 5.86328 136.535 6.30579 137.701 7.19081C138.884 8.05739 139.682 9.30195 140.095 10.9245H136.786C136.517 10.1685 136.087 9.57852 135.495 9.15445C134.904 8.73038 134.159 8.51834 133.263 8.51834C132.008 8.51834 131.004 8.97929 130.25 9.90118C129.515 10.8046 129.148 12.0768 129.148 13.7178C129.148 15.3588 129.515 16.6402 130.25 17.5621C131.004 18.484 132.008 18.9449 133.263 18.9449C135.038 18.9449 136.213 18.1429 136.786 16.5388H140.095C139.664 18.0876 138.857 19.3229 137.674 20.2448C136.49 21.1483 135.02 21.6 133.263 21.6C131.846 21.6 130.591 21.2773 129.497 20.632C128.403 19.9682 127.543 19.0464 126.915 17.8663C126.306 16.6679 126.001 15.285 126.001 13.7178Z" fill="white"/>
<path d="M156.733 13.3583C156.733 13.9298 156.698 14.4461 156.626 14.907H145.302C145.392 16.1239 145.831 17.1012 146.62 17.8387C147.409 18.5762 148.377 18.9449 149.525 18.9449C151.175 18.9449 152.34 18.2351 153.022 16.8154H156.33C155.882 18.2166 155.066 19.369 153.882 20.2725C152.717 21.1575 151.264 21.6 149.525 21.6C148.108 21.6 146.835 21.2773 145.706 20.632C144.594 19.9682 143.715 19.0464 143.07 17.8663C142.442 16.6679 142.128 15.285 142.128 13.7178C142.128 12.1506 142.433 10.777 143.043 9.59696C143.67 8.39849 144.54 7.4766 145.652 6.83127C146.782 6.18595 148.073 5.86328 149.525 5.86328C150.924 5.86328 152.17 6.17673 153.264 6.80361C154.358 7.4305 155.209 8.31552 155.819 9.45867C156.429 10.5834 156.733 11.8832 156.733 13.3583ZM153.533 12.3626C153.515 11.201 153.111 10.2699 152.322 9.5693C151.533 8.86866 150.556 8.51834 149.391 8.51834C148.333 8.51834 147.427 8.86866 146.674 9.5693C145.921 10.2515 145.473 11.1826 145.329 12.3626H153.533Z" fill="white"/>
<path d="M52.5865 21.5447C52.0307 21.5447 51.5644 21.3511 51.1879 20.9639C50.8113 20.5767 50.623 20.0974 50.623 19.5258C50.623 18.9542 50.8113 18.4748 51.1879 18.0876C51.5644 17.7004 52.0307 17.5068 52.5865 17.5068C53.1245 17.5068 53.5817 17.7004 53.9583 18.0876C54.3348 18.4748 54.5231 18.9542 54.5231 19.5258C54.5231 20.0974 54.3348 20.5767 53.9583 20.9639C53.5817 21.3511 53.1245 21.5447 52.5865 21.5447Z" fill="#49AA26"/>
</svg>
